<?xml version="1.0" encoding="UTF-8" standalone="no"?>
<!-- Created with Inkscape (http://www.inkscape.org/) -->
<svg xmlns:dc="http://purl.org/dc/elements/1.1/" xmlns:cc="http://creativecommons.org/ns#" xmlns:rdf="http://www.w3.org/1999/02/22-rdf-syntax-ns#" xmlns:svg="http://www.w3.org/2000/svg" xmlns="http://www.w3.org/2000/svg" xmlns:sodipodi="http://sodipodi.sourceforge.net/DTD/sodipodi-0.dtd" xmlns:inkscape="http://www.inkscape.org/namespaces/inkscape" version="1.0" width="265" height="265" id="svg2" sodipodi:version="0.32" inkscape:version="0.48.3.1 r9886" sodipodi:docname="ClassicMicrotron.svg" inkscape:output_extension="org.inkscape.output.svg.inkscape">
  <sodipodi:namedview inkscape:window-height="998" inkscape:window-width="1270" inkscape:pageshadow="2" inkscape:pageopacity="0.0" guidetolerance="10.0" gridtolerance="10.0" objecttolerance="10.0" borderopacity="1.0" bordercolor="#666666" pagecolor="#ffffff" id="base" showgrid="true" inkscape:zoom="2" inkscape:cx="165.72149" inkscape:cy="185.78129" inkscape:window-x="5" inkscape:window-y="2" inkscape:current-layer="g4266" fit-margin-top="0" fit-margin-left="0" fit-margin-right="0" fit-margin-bottom="0" inkscape:window-maximized="1">
    <inkscape:grid type="xygrid" id="grid3103" empspacing="5" visible="true" enabled="true" snapvisiblegridlinesonly="true" originx="-385px" originy="-25px"/>
  </sodipodi:namedview>
  <metadata id="metadata11">
    <rdf:RDF>
      <cc:Work rdf:about="">
        <dc:format>image/svg+xml</dc:format>
        <dc:type rdf:resource="http://purl.org/dc/dcmitype/StillImage"/>
        <dc:title/>
      </cc:Work>
    </rdf:RDF>
  </metadata>
  <defs id="defs4">
    <marker style="overflow:visible" id="Arrow2Mend" refX="0" refY="0" orient="auto" inkscape:stockid="Arrow2Mend">
      <path transform="scale(-0.6,-0.6)" d="M 8.7185878,4.0337352 -2.2072895,0.01601326 8.7185884,-4.0017078 c -1.7454984,2.3720609 -1.7354408,5.6174519 -6e-7,8.035443 z" style="font-size:12px;fill-rule:evenodd;stroke-width:0.625;stroke-linejoin:round" id="path3200" inkscape:connector-curvature="0"/>
    </marker>
    <marker style="overflow:visible" id="Arrow1Send" refX="0" refY="0" orient="auto" inkscape:stockid="Arrow1Send">
      <path transform="matrix(-0.2,0,0,-0.2,-1.2,0)" style="fill-rule:evenodd;stroke:#000000;stroke-width:1pt;marker-start:none" d="M 0,0 5,-5 -12.5,0 5,5 0,0 z" id="path3188" inkscape:connector-curvature="0"/>
    </marker>
    <inkscape:perspective id="perspective13" inkscape:persp3d-origin="139.50024 : 90.700063 : 1" inkscape:vp_z="279.00049 : 136.05009 : 1" inkscape:vp_y="0 : 1000 : 0" inkscape:vp_x="0 : 136.05009 : 1" sodipodi:type="inkscape:persp3d"/>
    <marker style="overflow:visible" id="Arrow2MendB" refX="0" refY="0" orient="auto" inkscape:stockid="Arrow2MendB">
      <path transform="scale(-0.6,-0.6)" d="M 8.7185878,4.0337352 -2.2072895,0.01601326 8.7185884,-4.0017078 c -1.7454984,2.3720609 -1.7354408,5.6174519 -6e-7,8.035443 z" style="font-size:12px;fill:#009c03;fill-rule:evenodd;stroke:#009c03;stroke-width:0.625;stroke-linejoin:round" id="path5572" inkscape:connector-curvature="0"/>
    </marker>
  </defs>
  <path sodipodi:nodetypes="cczccccc" id="path4471" d="m 237.30707,27.69952 -10.496,57.23006 C 218.67294,69.65889 211.93293,60.79985 195.32312,47.13615 178.39126,33.20751 156.48796,25 125,25 65,25 10.16803,73.58945 10.06894,140.5399 10.06894,206.94835 70,255 125.5248,255 195,255 230,200 238.88146,156.19718 L 259.34864,30.93895" style="fill:#fffdbf;fill-opacity:1;fill-rule:evenodd;stroke:#008211;stroke-width:2;stroke-linecap:butt;stroke-linejoin:miter;stroke-miterlimit:4;stroke-opacity:1;stroke-dasharray:none" inkscape:connector-curvature="0"/>
  <path sodipodi:nodetypes="ccc" inkscape:connector-curvature="0" id="path4481" d="m 127,22 0,-4 8,0" style="fill:none;stroke:#000000;stroke-width:0.5;stroke-linecap:butt;stroke-linejoin:miter;stroke-miterlimit:4;stroke-opacity:1;stroke-dasharray:none;marker-end:none"/>
  <path transform="matrix(0.30612373,0,0,-0.30612373,69.76713,154.22148)" d="m 218.14244,444.98831 a 7.4246211,7.4246211 0 1 1 -14.84924,0 7.4246211,7.4246211 0 1 1 14.84924,0 z" sodipodi:ry="7.4246211" sodipodi:rx="7.4246211" sodipodi:cy="444.98831" sodipodi:cx="210.71782" id="path5006" style="fill:#ffffff;fill-opacity:1;stroke:#010400;stroke-width:1.63332653;stroke-linecap:butt;stroke-linejoin:miter;stroke-miterlimit:4;stroke-opacity:1;stroke-dasharray:none;stroke-dashoffset:0" sodipodi:type="arc"/>
  <path sodipodi:nodetypes="ccc" inkscape:connector-curvature="0" id="path5014" d="m 125,20 0,-10 10,0" style="fill:none;stroke:#000000;stroke-width:0.5;stroke-linecap:square;stroke-linejoin:miter;stroke-miterlimit:4;stroke-opacity:1;stroke-dasharray:none;marker-end:none"/>
  <path transform="matrix(0.30612373,0,0,-0.30612373,69.76713,146.22148)" d="m 218.14244,444.98831 a 7.4246211,7.4246211 0 1 1 -14.84924,0 7.4246211,7.4246211 0 1 1 14.84924,0 z" sodipodi:ry="7.4246211" sodipodi:rx="7.4246211" sodipodi:cy="444.98831" sodipodi:cx="210.71782" id="path5016" style="fill:#ffffff;fill-opacity:1;stroke:#010400;stroke-width:1.63332653;stroke-linecap:butt;stroke-linejoin:miter;stroke-miterlimit:4;stroke-opacity:1;stroke-dasharray:none;stroke-dashoffset:0" sodipodi:type="arc"/>
  <text sodipodi:linespacing="125%" id="text5018" y="20" x="145" style="font-size:14.84356785px;font-style:normal;font-variant:normal;font-weight:normal;font-stretch:normal;text-align:center;line-height:125%;writing-mode:lr-tb;text-anchor:middle;fill:#000000;fill-opacity:1;stroke:none;font-family:DejaVu Sans;-inkscape-font-specification:DejaVu Sans" xml:space="preserve"><tspan y="20" x="145" id="tspan5020" sodipodi:role="line">U</tspan></text>
  <text sodipodi:linespacing="100%" id="text5022" y="22.016815" x="154.66565" style="font-size:13.35921097px;font-style:normal;font-variant:normal;font-weight:normal;font-stretch:normal;text-align:center;line-height:100%;writing-mode:lr-tb;text-anchor:middle;fill:#000000;fill-opacity:1;stroke:none;font-family:DejaVu Sans;-inkscape-font-specification:DejaVu Sans" xml:space="preserve"><tspan y="22.016815" x="154.66565" id="tspan5024" sodipodi:role="line">~</tspan></text>
  <text sodipodi:linespacing="100%" id="text5026" y="24.985535" x="154.66565" style="font-size:13.35921097px;font-style:normal;font-variant:normal;font-weight:normal;font-stretch:normal;text-align:center;line-height:100%;writing-mode:lr-tb;text-anchor:middle;fill:#000000;fill-opacity:1;stroke:none;font-family:DejaVu Sans;-inkscape-font-specification:DejaVu Sans" xml:space="preserve"><tspan y="24.985535" x="154.66565" id="tspan5028" sodipodi:role="line">~</tspan></text>
  <path sodipodi:type="arc" style="fill:#b8ff8b;fill-opacity:1;fill-rule:nonzero;stroke:none" id="path3109" sodipodi:cx="170" sodipodi:cy="180" sodipodi:rx="125" sodipodi:ry="125" d="m 295,180 a 125,125 0 1 1 -250,0 125,125 0 1 1 250,0 z" transform="matrix(0.8,0,0,0.8,-11,-4)"/>
  <path style="font-size:medium;font-style:normal;font-variant:normal;font-weight:normal;font-stretch:normal;text-indent:0;text-align:start;text-decoration:none;line-height:normal;letter-spacing:normal;word-spacing:normal;text-transform:none;direction:ltr;block-progression:tb;writing-mode:lr-tb;text-anchor:start;baseline-shift:baseline;color:#000000;fill:#c3c39f;fill-opacity:1;stroke:#000000;stroke-width:0.5;stroke-miterlimit:4;stroke-opacity:1;stroke-dasharray:none;marker:none;visibility:visible;display:inline;overflow:visible;enable-background:accumulate;font-family:Sans;-inkscape-font-specification:Sans" d="m 132.08333,47.2475 c 2.04644,0.0105 3.92416,1.94733 5.20834,5.18919 1.28411,3.24169 2.08333,7.65765 2.08333,12.56331 0,4.90566 -0.79928,9.32177 -2.08333,12.56331 -1.28542,3.24497 -3.16613,5.18919 -5.20834,5.18919" id="path4429" inkscape:connector-curvature="0"/>
  <g id="g4266" transform="translate(-385,-65)" style="stroke-width:1.39999998;stroke-miterlimit:4;stroke-dasharray:none">
    <path transform="matrix(0.512,0,0,0.512,422.96,101.84)" d="m 295,180 a 125,125 0 1 1 -250,0 125,125 0 1 1 250,0 z" sodipodi:ry="125" sodipodi:rx="125" sodipodi:cy="180" sodipodi:cx="170" id="path3109-3-3-3-6-1-5-3" style="fill:none;stroke:#000000;stroke-width:3.04347825;stroke-miterlimit:4;stroke-opacity:1;stroke-dasharray:none" sodipodi:type="arc"/>
    <path transform="matrix(0.384,0,0,0.384,444.72,108.88)" d="m 295,180 a 125,125 0 1 1 -250,0 125,125 0 1 1 250,0 z" sodipodi:ry="125" sodipodi:rx="125" sodipodi:cy="180" sodipodi:cx="170" id="path3109-3-3-3-6-1-5-3-7" style="fill:none;stroke:#000000;stroke-width:3.88888884;stroke-miterlimit:4;stroke-opacity:1;stroke-dasharray:none" sodipodi:type="arc"/>
    <path transform="matrix(0.256,0,0,0.256,466.48,115.92)" d="m 295,180 a 125,125 0 1 1 -250,0 125,125 0 1 1 250,0 z" sodipodi:ry="125" sodipodi:rx="125" sodipodi:cy="180" sodipodi:cx="170" id="path3109-3-3-3-6-1-5-3-7-9" style="fill:none;stroke:#000000;stroke-width:5.83333349;stroke-miterlimit:4;stroke-opacity:1;stroke-dasharray:none" sodipodi:type="arc"/>
    <path transform="matrix(0.128,0,0,0.128,488.24,122.96)" d="m 170,55 a 125,125 0 0 1 0,250" sodipodi:ry="125" sodipodi:rx="125" sodipodi:cy="180" sodipodi:cx="170" id="path3109-3-3-3-6-1-5-3-7-9-9" style="fill:none;stroke:#000000;stroke-width:11.66666698;stroke-miterlimit:4;stroke-opacity:1;stroke-dasharray:none" sodipodi:type="arc" sodipodi:start="4.712389" sodipodi:end="7.8539816" sodipodi:open="true"/>
    <path transform="matrix(0.64,0,0,0.64,401.2,94.8)" d="M 170,305 C 100.96441,305 45.000002,249.0356 45,180 c -2e-6,-69.03559 55.9644,-124.999998 125,-125 0,0 0,0 0,0" sodipodi:ry="125" sodipodi:rx="125" sodipodi:cy="180" sodipodi:cx="170" id="path3109-3-3-3-6-1-6" style="fill:none;stroke:#000000;stroke-width:2.1875;stroke-miterlimit:4;stroke-opacity:1;stroke-dasharray:none" sodipodi:type="arc" sodipodi:start="1.5707963" sodipodi:end="4.712389" sodipodi:open="true"/>
  </g>
  <path style="font-size:medium;font-style:normal;font-variant:normal;font-weight:normal;font-stretch:normal;text-indent:0;text-align:start;text-decoration:none;line-height:normal;letter-spacing:normal;word-spacing:normal;text-transform:none;direction:ltr;block-progression:tb;writing-mode:lr-tb;text-anchor:start;baseline-shift:baseline;color:#000000;fill:#c3c39f;fill-opacity:1;fill-rule:nonzero;stroke:none;stroke-width:1.10264564;marker:none;visibility:visible;display:inline;overflow:visible;enable-background:accumulate;font-family:Sans;-inkscape-font-specification:Sans" d="m 132.08333,47.2475 c -2.04643,0.0105 -3.71582,1.94733 -5,5.18919 C 125.79922,55.67838 125,60.09434 125,65 c 0,4.90566 0.79928,9.32177 2.08333,12.56331 1.28542,3.24497 2.95781,5.18919 5,5.18919" id="path2985-4-1-5-9-0-7-9-9-0-6" inkscape:connector-curvature="0" sodipodi:nodetypes="csssc"/>
  <path style="fill:#c3c39f;fill-opacity:1;stroke:#000000;stroke-width:0.5;stroke-linecap:butt;stroke-linejoin:miter;stroke-miterlimit:4;stroke-opacity:1;stroke-dasharray:none" d="m 130,20 0,28 -5,0 0,-28" id="path4388" inkscape:connector-curvature="0" sodipodi:nodetypes="cccc"/>
  <path style="font-size:medium;font-style:normal;font-variant:normal;font-weight:normal;font-stretch:normal;text-indent:0;text-align:start;text-decoration:none;line-height:normal;letter-spacing:normal;word-spacing:normal;text-transform:none;direction:ltr;block-progression:tb;writing-mode:lr-tb;text-anchor:start;baseline-shift:baseline;color:#000000;fill:#c3c39f;fill-opacity:1;fill-rule:nonzero;stroke:#000000;stroke-width:0.5;stroke-miterlimit:4;stroke-opacity:1;stroke-dasharray:none;marker:none;visibility:visible;display:inline;overflow:visible;enable-background:accumulate;font-family:Sans;-inkscape-font-specification:Sans" d="m 119.58333,47.2475 c -2.04643,0.0105 -3.92415,1.94733 -5.20833,5.18919 -1.28411,3.24169 -2.08334,7.65765 -2.08334,12.56331 0,4.90566 0.79928,9.32177 2.08334,12.56331 1.28541,3.24497 3.16613,5.18919 5.20833,5.18919 l 12.5,0 c -2.08333,0 -3.73644,-1.99938 -5,-5.18919 C 125.81923,74.37212 125,69.86789 125,65 c 0,-4.86789 0.81928,-9.37226 2.08333,-12.56331 1.26403,-3.19098 2.91667,-5.18919 5,-5.18919 z" id="path2985-4-1-5-9-0-7-9-9-7" inkscape:connector-curvature="0" sodipodi:nodetypes="csssccssscc"/>
  <path style="font-size:medium;font-style:normal;font-variant:normal;font-weight:normal;font-stretch:normal;text-indent:0;text-align:start;text-decoration:none;line-height:normal;letter-spacing:normal;word-spacing:normal;text-transform:none;direction:ltr;block-progression:tb;writing-mode:lr-tb;text-anchor:start;baseline-shift:baseline;color:#000000;fill:#ffffff;fill-opacity:0.50196078;fill-rule:nonzero;stroke:#000000;stroke-width:0.25329739;stroke-miterlimit:4;stroke-opacity:1;stroke-dasharray:none;marker:none;visibility:visible;display:inline;overflow:visible;enable-background:accumulate;font-family:Sans;-inkscape-font-specification:Sans" d="m 132.34591,60.5673 c -0.55096,0.002 -1.00041,0.48624 -1.34615,1.29571 -0.34573,0.80943 -0.5609,1.91207 -0.5609,3.13699 0,1.22491 0.21519,2.3276 0.5609,3.137 0.34607,0.81024 0.79633,1.29571 1.34615,1.29571 0.54982,0 1.05617,-0.48546 1.40224,-1.29571 0.34571,-0.8094 0.5609,-1.91209 0.5609,-3.137 0,-1.22492 -0.21517,-2.32756 -0.5609,-3.13699 -0.34574,-0.80947 -0.85128,-1.29309 -1.40224,-1.29571 z" id="path2985-4-1-5-9-0-7-9-9-0-6-2-2" inkscape:connector-curvature="0" sodipodi:nodetypes="csssssssc"/>
  <path transform="matrix(0.85695331,0,0,0.85695331,-194.99988,-175.02938)" d="m 379.25039,317.43781 a 5.8346214,5.8346214 0 1 1 -11.66924,0 5.8346214,5.8346214 0 1 1 11.66924,0 z" sodipodi:ry="5.8346214" sodipodi:rx="5.8346214" sodipodi:cy="317.43781" sodipodi:cx="373.41577" id="path3160" style="fill:#00bfff;fill-opacity:1;stroke:#000000;stroke-width:0.58346236;stroke-linecap:butt;stroke-linejoin:miter;stroke-miterlimit:4;stroke-opacity:1;stroke-dasharray:none;stroke-dashoffset:0" sodipodi:type="arc"/>
  <g id="g4376" style="stroke-width:1.39999998;stroke-miterlimit:4;stroke-dasharray:none" transform="translate(-385,-70)">
    <path sodipodi:type="arc" style="fill:none;stroke:#000000;stroke-width:1.60678923;stroke-linecap:butt;stroke-linejoin:miter;stroke-miterlimit:4;stroke-opacity:1;stroke-dasharray:none;stroke-dashoffset:0" id="path3162" sodipodi:cx="210.7757" sodipodi:cy="256.17426" sodipodi:rx="121.0684" sodipodi:ry="121.0684" d="m 330.2856,275.5376 c -9.51868,58.74901 -60.32539,101.86702 -119.84031,101.7046" transform="matrix(0.87130282,0,0,0.87130282,326.35054,-33.692587)" sodipodi:start="0.16062707" sodipodi:end="1.5735254" sodipodi:open="true"/>
    <path sodipodi:type="arc" style="fill:none;stroke:#d00808;stroke-width:1.11360097;stroke-linecap:butt;stroke-linejoin:miter;stroke-miterlimit:4;stroke-opacity:1;stroke-dasharray:none;stroke-dashoffset:0" id="path3164" sodipodi:cx="210.7757" sodipodi:cy="256.17426" sodipodi:rx="121.0684" sodipodi:ry="121.0684" d="M 329.12999,281.66576 C 317.4943,335.689 270.75372,374.977 215.53433,377.1491" transform="matrix(0.89798777,0,0,0.89798777,320.72601,-40.528583)" sodipodi:start="0.21214225" sodipodi:end="1.5314809" sodipodi:open="true"/>
    <path sodipodi:type="arc" style="fill:none;stroke:#d00808;stroke-width:1.17162848;stroke-linecap:butt;stroke-linejoin:miter;stroke-miterlimit:4;stroke-opacity:1;stroke-dasharray:none;stroke-dashoffset:0" id="path3166" sodipodi:cx="210.7757" sodipodi:cy="256.17426" sodipodi:rx="121.0684" sodipodi:ry="121.0684" d="m 329.1496,281.57457 c -11.56642,53.90335 -58.0891,93.18574 -113.16845,95.55612" transform="matrix(0.85351288,0,0,0.85351288,330.10023,-29.13526)" sodipodi:start="0.21137179" sodipodi:end="1.5277871" sodipodi:open="true"/>
    <path inkscape:connector-curvature="0" style="fill:none;stroke:#000000;stroke-width:1.39999998;stroke-linecap:butt;stroke-linejoin:miter;stroke-miterlimit:4;stroke-opacity:1;stroke-dasharray:none;marker-end:url(#Arrow2Mend)" d="M 613.8407,208.18606 635.17093,93.835138" id="path3168"/>
  </g>
  <g id="g5557" transform="translate(-88.49957,-305.59134)">
    <text xml:space="preserve" style="font-size:22px;font-style:normal;font-variant:normal;font-weight:normal;font-stretch:normal;text-align:start;line-height:125%;writing-mode:lr-tb;text-anchor:start;fill:#009c03;fill-opacity:1;stroke:none;font-family:DejaVu Sans;-inkscape-font-specification:DejaVu Sans" x="276.89951" y="404.69067" id="text5030" sodipodi:linespacing="125%"><tspan sodipodi:role="line" id="tspan5032" x="276.89951" y="404.69067">B</tspan></text>
    <path style="fill:none;stroke:#009c03;stroke-width:1px;stroke-linecap:butt;stroke-linejoin:miter;stroke-opacity:1;marker-end:url(#Arrow2MendB)" d="m 278.95363,385.59134 9.54594,0" id="path5034" inkscape:connector-curvature="0"/>
  </g>
</svg>