<?xml version="1.0" encoding="UTF-8" standalone="no"?>
<!-- Created with Inkscape (http://www.inkscape.org/) -->

<svg
   xmlns:dc="http://purl.org/dc/elements/1.1/"
   xmlns:cc="http://creativecommons.org/ns#"
   xmlns:rdf="http://www.w3.org/1999/02/22-rdf-syntax-ns#"
   xmlns:svg="http://www.w3.org/2000/svg"
   xmlns="http://www.w3.org/2000/svg"
   version="1.1"
   width="100%"
   height="100%"
   viewBox="196.41 116.24 284.24 192.36"
   id="svg3324">
  <metadata
     id="metadata3484">
    <rdf:RDF>
      <cc:Work
         rdf:about="">
        <dc:format>image/svg+xml</dc:format>
        <dc:type
           rdf:resource="http://purl.org/dc/dcmitype/StillImage" />
        <dc:title></dc:title>
      </cc:Work>
    </rdf:RDF>
  </metadata>
  <defs
     id="defs3482" />
  <clipPath
     id="72">
    <rect
       width="1116.8"
       height="1610"
       x="0.85"
       y="0.85"
       id="rect3327" />
  </clipPath>
  <g
     transform="translate(8.0608,7.2429)"
     id="g3333">
    <g
       id="text3335"
       style="text-anchor:start">
      <path
         d="m 277.99,196.01 0,-17.18 2.33,0 9.02,13.49 0,-13.49 2.18,0 0,17.18 -2.33,0 -9.02,-13.5 0,13.5 z"
         id="path3686"
         style="font-size:24px;fill:#000000;font-family:Arial" />
    </g>
  </g>
  <g
     transform="translate(8.0608,7.2429)"
     id="g3339">
    <g
       id="text3341"
       style="text-anchor:start">
      <path
         d="m 312.35,255.54 0,-17.18 2.33,0 9.02,13.49 0,-13.49 2.18,0 0,17.18 -2.33,0 -9.02,-13.5 0,13.5 z"
         id="path3683"
         style="font-size:24px;fill:#000000;font-family:Arial" />
    </g>
  </g>
  <g
     transform="translate(8.0608,7.2429)"
     id="Solid">
    <path
       d="m 283.98,197 0,0 0.85,0 0.85,0 0,28.75 -0.85,0.49 -0.85,-0.49 z"
       id="path3346"
       style="fill:#000000;fill-rule:evenodd;stroke:#000000;stroke-width:0;stroke-linejoin:miter" />
  </g>
  <g
     transform="translate(8.0608,7.2429)"
     id="g3348">
    <path
       d="m 284.83,227.22 0,0 0,-0.98 0.85,-0.49 23.58,13.22 -0.42,0.73 -0.43,0.74 z"
       id="path3350"
       style="fill:#000000;fill-rule:evenodd;stroke:#000000;stroke-width:0;stroke-linejoin:miter" />
    <path
       d="m 290.78,222.8 20.78,12.01"
       id="line3352"
       style="stroke:#000000;stroke-width:1.7" />
  </g>
  <g
     transform="translate(8.0608,7.2429)"
     id="g3354">
    <path
       d="m 329.63,240.76 0,0 -0.43,-0.74 -0.42,-0.74 23.94,-13.53 0.85,0.49 0.1,0.93 z"
       id="path3356"
       style="fill:#000000;fill-rule:evenodd;stroke:#000000;stroke-width:0;stroke-linejoin:miter" />
  </g>
  <g
     transform="translate(8.0608,7.2429)"
     id="g3358">
    <path
       d="m 354.42,225.62 0,0 -0.85,0.62 -0.85,-0.49 0,-38.7 0.85,-0.49 0.85,0.62 z"
       id="path3360"
       style="fill:#000000;fill-rule:evenodd;stroke:#000000;stroke-width:0;stroke-linejoin:miter" />
    <path
       d="m 359.52,221.92 0,-31.04"
       id="line3362"
       style="stroke:#000000;stroke-width:1.7" />
  </g>
  <g
     transform="translate(8.0608,7.2429)"
     id="g3364">
    <path
       d="m 353.67,185.63 0,0 -0.1,0.93 -0.85,0.49 -33.52,-19.36 0,-0.98 0,-0.98 z"
       id="path3366"
       style="fill:#000000;fill-rule:evenodd;stroke:#000000;stroke-width:0;stroke-linejoin:miter" />
  </g>
  <g
     transform="translate(8.0608,7.2429)"
     id="g3368">
    <path
       d="m 319.2,165.73 0,0 0,0.98 0,0.98 -25.18,14.55 -0.43,-0.74 -0.42,-0.74 z"
       id="path3370"
       style="fill:#000000;fill-rule:evenodd;stroke:#000000;stroke-width:0;stroke-linejoin:miter" />
  </g>
  <g
     transform="translate(8.0608,7.2429)"
     id="g3372">
    <g
       id="text3374"
       style="text-anchor:start">
      <path
         d="m 384.47,247.96 0,-17.18 2.33,0 9.02,13.49 0,-13.49 2.18,0 0,17.18 -2.33,0 -9.02,-13.5 0,13.5 z"
         id="path3678"
         style="font-size:24px;fill:#000000;font-family:Arial" />
    </g>
  </g>
  <g
     transform="translate(8.0608,7.2429)"
     id="g3378">
    <g
       id="text3380"
       style="text-anchor:start">
      <path
         d="m 384.47,183.74 0,-17.18 2.33,0 9.02,13.49 0,-13.49 2.18,0 0,17.18 -2.33,0 -9.02,-13.5 0,13.5 z"
         id="path3675"
         style="font-size:24px;fill:#000000;font-family:Arial" />
    </g>
  </g>
  <g
     transform="translate(8.0608,7.2429)"
     id="g3384">
    <path
       d="m 353.67,227.17 0,0 -0.1,-0.93 0.85,-0.62 28.16,9.16 -0.27,0.8 -0.26,0.81 z"
       id="path3386"
       style="fill:#000000;fill-rule:evenodd;stroke:#000000;stroke-width:0;stroke-linejoin:miter" />
  </g>
  <g
     transform="translate(8.0608,7.2429)"
     id="g3388">
    <path
       d="m 398.95,229.44 0,0 -0.69,-0.5 -0.68,-0.5 16.01,-22.04 1.05,0 1.05,0 z"
       id="path3390"
       style="fill:#000000;fill-rule:evenodd;stroke:#000000;stroke-width:0;stroke-linejoin:miter" />
  </g>
  <g
     transform="translate(8.0608,7.2429)"
     id="g3392">
    <path
       d="m 415.69,206.4 0,0 -1.05,0 -1.05,0 -14.83,-20.4 0.69,-0.5 0.69,-0.5 z"
       id="path3394"
       style="fill:#000000;fill-rule:evenodd;stroke:#000000;stroke-width:0;stroke-linejoin:miter" />
  </g>
  <g
     transform="translate(8.0608,7.2429)"
     id="g3396">
    <path
       d="m 382.05,176.41 0,0 0.26,0.81 0.27,0.8 -28.16,9.16 -0.85,-0.62 0.1,-0.93 z"
       id="path3398"
       style="fill:#000000;fill-rule:evenodd;stroke:#000000;stroke-width:0;stroke-linejoin:miter" />
  </g>
  <g
     transform="translate(8.0608,7.2429)"
     id="g3400">
    <g
       id="text3402"
       style="text-anchor:start">
      <path
         d="m 311.04,128.11 c 0,-2.85 0.77,-5.08 2.3,-6.69 1.53,-1.62 3.5,-2.42 5.93,-2.42 1.58,0 3.01,0.37 4.29,1.13 1.27,0.76 2.24,1.82 2.91,3.17 0.67,1.36 1,2.89 1,4.61 0,1.75 -0.35,3.3 -1.05,4.68 -0.71,1.37 -1.7,2.42 -2.99,3.12 -1.29,0.71 -2.68,1.06 -4.17,1.06 -1.62,0 -3.07,-0.39 -4.34,-1.17 -1.27,-0.78 -2.24,-1.85 -2.9,-3.2 -0.65,-1.35 -0.98,-2.78 -0.98,-4.29 z m 2.34,0 c 0,2.07 0.56,3.7 1.67,4.89 1.12,1.19 2.51,1.79 4.19,1.79 1.71,0 3.12,-0.6 4.23,-1.81 1.1,-1.2 1.66,-2.91 1.66,-5.12 0,-1.4 -0.24,-2.62 -0.71,-3.66 -0.48,-1.04 -1.17,-1.85 -2.08,-2.43 -0.91,-0.57 -1.93,-0.86 -3.06,-0.86 -1.61,0 -3,0.56 -4.16,1.66 -1.16,1.11 -1.74,2.95 -1.74,5.54 z"
         id="path3672"
         style="font-size:24px;fill:#000000;font-family:Arial" />
    </g>
  </g>
  <g
     transform="translate(8.0608,7.2429)"
     id="g3406">
    <path
       d="m 316.22,166.71 0,-27.61"
       id="line3408"
       style="stroke:#000000;stroke-width:1.7" />
    <path
       d="m 321.33,166.96 0,0 1.7,0.98 0,-28.84 -1.7,0 z"
       id="path3410"
       style="fill:#000000;fill-rule:evenodd;stroke:#000000;stroke-width:0;stroke-linejoin:miter" />
    <path
       d="m 315.37,167.94 0,0 1.7,-0.98 0,-27.86 -1.7,0 z"
       id="path3412"
       style="fill:#000000;fill-rule:evenodd;stroke:#000000;stroke-width:0;stroke-linejoin:miter" />
  </g>
  <g
     transform="translate(8.0608,7.2429)"
     id="g3414">
    <g
       id="text3416"
       style="text-anchor:end">
      <path
         d="m 198.35,255.54 0,-17.18 2.27,0 0,7.05 8.93,0 0,-7.05 2.28,0 0,17.18 -2.28,0 0,-8.1 -8.93,0 0,8.1 z"
         id="path3662"
         style="font-size:24px;fill:#000000;font-family:Arial" />
      <path
         d="m 214.53,257.57 1.58,-0.21 c 0.18,0.89 0.49,1.54 0.93,1.94 0.43,0.39 0.96,0.59 1.59,0.59 0.74,0 1.37,-0.26 1.89,-0.77 0.51,-0.52 0.77,-1.16 0.77,-1.92 0,-0.73 -0.24,-1.33 -0.72,-1.8 -0.47,-0.47 -1.07,-0.71 -1.81,-0.71 -0.3,0 -0.67,0.1 -1.11,0.18 l 0.17,-1.39 c 0.11,0 0.19,0 0.26,0 0.67,0 1.28,-0.18 1.82,-0.53 0.54,-0.35 0.81,-0.89 0.81,-1.62 0,-0.58 -0.2,-1.06 -0.59,-1.45 -0.4,-0.38 -0.9,-0.57 -1.52,-0.57 -0.62,0 -1.13,0.2 -1.54,0.58 -0.41,0.39 -0.68,0.97 -0.79,1.74 l -1.59,-0.28 c 0.2,-1.06 0.64,-1.88 1.32,-2.46 0.69,-0.59 1.54,-0.88 2.56,-0.88 0.7,0 1.35,0.15 1.94,0.46 0.59,0.3 1.05,0.71 1.36,1.23 0.31,0.52 0.47,1.08 0.47,1.66 0,0.56 -0.15,1.06 -0.45,1.52 -0.3,0.46 -0.74,0.82 -1.32,1.09 0.76,0.18 1.35,0.54 1.77,1.1 0.42,0.55 0.63,1.24 0.63,2.07 0,1.13 -0.41,2.08 -1.23,2.87 -0.82,0.78 -1.85,1.17 -3.11,1.17 -1.13,0 -2.07,-0.34 -2.81,-1.01 -0.75,-0.68 -1.18,-1.55 -1.28,-2.62 z"
         id="path3664"
         style="font-size:18px;fill:#000000;font-family:Arial" />
      <path
         d="m 237.9,249.52 2.27,0.57 c -0.47,1.87 -1.33,3.29 -2.57,4.27 -1.24,0.98 -2.75,1.47 -4.54,1.47 -1.85,0 -3.36,-0.37 -4.52,-1.13 -1.16,-0.75 -2.04,-1.84 -2.65,-3.27 -0.6,-1.43 -0.9,-2.97 -0.9,-4.61 0,-1.79 0.34,-3.35 1.02,-4.68 0.68,-1.33 1.66,-2.34 2.92,-3.04 1.26,-0.69 2.65,-1.03 4.16,-1.03 1.72,0 3.17,0.43 4.34,1.31 1.17,0.87 1.99,2.11 2.45,3.69 l -2.24,0.53 c -0.4,-1.25 -0.98,-2.16 -1.73,-2.73 -0.76,-0.57 -1.71,-0.86 -2.86,-0.86 -1.32,0 -2.43,0.32 -3.31,0.95 -0.89,0.63 -1.51,1.48 -1.87,2.55 -0.36,1.07 -0.54,2.17 -0.54,3.3 0,1.46 0.21,2.74 0.64,3.83 0.42,1.09 1.09,1.9 1.98,2.44 0.9,0.54 1.88,0.81 2.92,0.81 1.28,0 2.35,-0.37 3.24,-1.1 0.88,-0.74 1.48,-1.83 1.79,-3.27 z"
         id="path3666"
         style="font-size:24px;fill:#000000;font-family:Arial" />
      <path
         d="m 242.29,247.17 c 0,-2.85 0.77,-5.08 2.3,-6.69 1.53,-1.62 3.51,-2.42 5.93,-2.42 1.59,0 3.02,0.37 4.29,1.13 1.27,0.76 2.24,1.82 2.91,3.17 0.67,1.36 1,2.89 1,4.61 0,1.75 -0.35,3.3 -1.05,4.68 -0.7,1.37 -1.7,2.42 -2.99,3.12 -1.29,0.71 -2.68,1.06 -4.17,1.06 -1.62,0 -3.06,-0.39 -4.34,-1.17 -1.27,-0.78 -2.24,-1.85 -2.89,-3.2 -0.66,-1.35 -0.99,-2.78 -0.99,-4.29 z m 2.35,0 c 0,2.07 0.55,3.7 1.67,4.89 1.11,1.19 2.51,1.79 4.19,1.79 1.71,0 3.12,-0.6 4.22,-1.81 1.11,-1.2 1.66,-2.91 1.66,-5.12 0,-1.4 -0.24,-2.62 -0.71,-3.66 -0.47,-1.04 -1.16,-1.85 -2.07,-2.43 -0.91,-0.57 -1.94,-0.86 -3.07,-0.86 -1.61,0 -2.99,0.56 -4.15,1.66 -1.16,1.11 -1.74,2.95 -1.74,5.54 z"
         id="path3668"
         style="font-size:24px;fill:#000000;font-family:Arial" />
    </g>
  </g>
  <g
     transform="translate(8.0608,7.2429)"
     id="g3424">
    <path
       d="m 283.98,225.75 0,0 0.85,0.49 0,0.98 -24.51,14.16 -0.43,-0.74 -0.42,-0.73 z"
       id="path3426"
       style="fill:#000000;fill-rule:evenodd;stroke:#000000;stroke-width:0;stroke-linejoin:miter" />
  </g>
  <g
     transform="translate(8.0608,7.2429)"
     id="g3428">
    <g
       id="text3430"
       style="text-anchor:start">
      <path
         d="m 446.16,207.48 c 0,-2.85 0.77,-5.08 2.3,-6.69 1.53,-1.62 3.5,-2.42 5.93,-2.42 1.58,0 3.01,0.37 4.29,1.13 1.27,0.76 2.24,1.82 2.91,3.17 0.67,1.36 1,2.89 1,4.61 0,1.75 -0.35,3.3 -1.05,4.68 -0.71,1.37 -1.7,2.42 -2.99,3.12 -1.29,0.71 -2.68,1.06 -4.18,1.06 -1.61,0 -3.06,-0.39 -4.33,-1.17 -1.27,-0.78 -2.24,-1.85 -2.9,-3.2 -0.65,-1.35 -0.98,-2.78 -0.98,-4.29 z m 2.34,0 c 0,2.07 0.56,3.7 1.67,4.89 1.12,1.19 2.51,1.79 4.19,1.79 1.71,0 3.12,-0.6 4.23,-1.81 1.1,-1.2 1.66,-2.91 1.66,-5.12 0,-1.4 -0.24,-2.62 -0.71,-3.66 -0.48,-1.04 -1.17,-1.85 -2.08,-2.43 -0.91,-0.57 -1.93,-0.86 -3.06,-0.86 -1.61,0 -3,0.56 -4.16,1.66 -1.16,1.11 -1.74,2.95 -1.74,5.54 z"
         id="path3659"
         style="font-size:24px;fill:#000000;font-family:Arial" />
    </g>
  </g>
  <g
     transform="translate(8.0608,7.2429)"
     id="g3434">
    <path
       d="m 414.64,203.42 29.26,0"
       id="line3436"
       style="stroke:#000000;stroke-width:1.7" />
    <path
       d="m 414.15,208.53 0,0 -1.24,1.7 30.99,0 0,-1.7 z"
       id="path3438"
       style="fill:#000000;fill-rule:evenodd;stroke:#000000;stroke-width:0;stroke-linejoin:miter" />
    <path
       d="m 412.91,202.57 0,0 1.24,1.7 29.75,0 0,-1.7 z"
       id="path3440"
       style="fill:#000000;fill-rule:evenodd;stroke:#000000;stroke-width:0;stroke-linejoin:miter" />
  </g>
  <g
     transform="translate(8.0608,7.2429)"
     id="g3442">
    <g
       id="text3444"
       style="text-anchor:start">
      <path
         d="m 409.01,279.68 2.27,0.57 c -0.47,1.87 -1.33,3.29 -2.57,4.27 -1.24,0.98 -2.75,1.47 -4.54,1.47 -1.85,0 -3.36,-0.37 -4.52,-1.13 -1.16,-0.75 -2.04,-1.84 -2.65,-3.27 -0.6,-1.43 -0.9,-2.97 -0.9,-4.61 0,-1.79 0.34,-3.35 1.02,-4.68 0.68,-1.33 1.66,-2.34 2.92,-3.04 1.26,-0.69 2.65,-1.03 4.16,-1.03 1.72,0 3.17,0.43 4.34,1.31 1.17,0.87 1.99,2.11 2.45,3.69 l -2.24,0.53 c -0.4,-1.25 -0.98,-2.16 -1.73,-2.73 -0.76,-0.57 -1.71,-0.86 -2.86,-0.86 -1.32,0 -2.43,0.32 -3.31,0.95 -0.89,0.63 -1.51,1.48 -1.87,2.55 -0.36,1.07 -0.54,2.17 -0.54,3.3 0,1.46 0.21,2.74 0.64,3.83 0.42,1.09 1.09,1.9 1.98,2.44 0.9,0.54 1.88,0.81 2.92,0.81 1.28,0 2.35,-0.37 3.24,-1.1 0.88,-0.74 1.48,-1.83 1.79,-3.27 z"
         id="path3651"
         style="font-size:24px;fill:#000000;font-family:Arial" />
      <path
         d="m 414.17,285.7 0,-17.18 2.27,0 0,7.06 8.93,0 0,-7.06 2.27,0 0,17.18 -2.27,0 0,-8.1 -8.93,0 0,8.1 z"
         id="path3653"
         style="font-size:24px;fill:#000000;font-family:Arial" />
      <path
         d="m 430.34,287.73 1.59,-0.21 c 0.18,0.89 0.49,1.54 0.92,1.94 0.44,0.39 0.97,0.59 1.6,0.59 0.74,0 1.37,-0.26 1.88,-0.77 0.52,-0.52 0.77,-1.16 0.77,-1.92 0,-0.73 -0.24,-1.33 -0.71,-1.8 -0.47,-0.47 -1.08,-0.71 -1.81,-0.71 -0.3,0 -0.67,0.1 -1.12,0.18 l 0.18,-1.39 c 0.1,0 0.19,0 0.25,0 0.68,0 1.28,-0.18 1.82,-0.53 0.54,-0.35 0.81,-0.89 0.81,-1.62 0,-0.58 -0.19,-1.06 -0.59,-1.45 -0.39,-0.38 -0.9,-0.57 -1.52,-0.57 -0.61,0 -1.13,0.2 -1.54,0.58 -0.41,0.39 -0.67,0.97 -0.79,1.74 l -1.58,-0.28 c 0.19,-1.06 0.63,-1.88 1.32,-2.46 0.69,-0.59 1.54,-0.88 2.56,-0.88 0.7,0 1.35,0.15 1.94,0.46 0.59,0.3 1.04,0.71 1.36,1.23 0.31,0.52 0.47,1.08 0.47,1.66 0,0.56 -0.15,1.06 -0.45,1.52 -0.3,0.46 -0.74,0.82 -1.33,1.09 0.76,0.18 1.36,0.54 1.78,1.1 0.42,0.55 0.63,1.24 0.63,2.07 0,1.13 -0.41,2.08 -1.23,2.87 -0.82,0.78 -1.86,1.17 -3.11,1.17 -1.13,0 -2.07,-0.34 -2.82,-1.01 -0.74,-0.68 -1.17,-1.55 -1.28,-2.62 z"
         id="path3655"
         style="font-size:18px;fill:#000000;font-family:Arial" />
    </g>
  </g>
  <g
     transform="translate(8.0608,7.2429)"
     id="g3450">
    <path
       d="m 394.66,250.46 0,0 0.81,-0.26 0.81,-0.27 4.9,16.22 -0.81,0.26 -0.8,0.27 z"
       id="path3452"
       style="fill:#000000;fill-rule:evenodd;stroke:#000000;stroke-width:0;stroke-linejoin:miter" />
  </g>
  <g
     transform="translate(8.0608,7.2429)"
     id="g3454">
    <g
       id="text3456"
       style="text-anchor:end">
      <path
         d="m 216.35,176.16 0,-17.18 2.28,0 0,7.06 8.93,0 0,-7.06 2.27,0 0,17.18 -2.27,0 0,-8.1 -8.93,0 0,8.1 z"
         id="path3644"
         style="font-size:24px;fill:#000000;font-family:Arial" />
      <path
         d="m 232.53,178.19 1.58,-0.21 c 0.19,0.89 0.5,1.54 0.93,1.94 0.44,0.39 0.97,0.59 1.6,0.59 0.74,0 1.37,-0.26 1.88,-0.77 0.52,-0.52 0.77,-1.16 0.77,-1.92 0,-0.73 -0.24,-1.33 -0.71,-1.8 -0.48,-0.47 -1.08,-0.71 -1.81,-0.71 -0.3,0 -0.67,0.1 -1.12,0.18 l 0.18,-1.39 c 0.1,0 0.19,0 0.25,0 0.68,0 1.28,-0.18 1.82,-0.53 0.54,-0.35 0.81,-0.89 0.81,-1.62 0,-0.58 -0.19,-1.06 -0.59,-1.45 -0.39,-0.38 -0.9,-0.57 -1.52,-0.57 -0.61,0 -1.13,0.2 -1.54,0.58 -0.41,0.39 -0.67,0.97 -0.79,1.74 l -1.58,-0.28 c 0.19,-1.06 0.63,-1.88 1.32,-2.46 0.68,-0.59 1.54,-0.88 2.56,-0.88 0.7,0 1.35,0.15 1.94,0.46 0.59,0.3 1.04,0.71 1.36,1.23 0.31,0.52 0.47,1.08 0.47,1.66 0,0.56 -0.15,1.06 -0.45,1.52 -0.3,0.46 -0.74,0.82 -1.33,1.09 0.76,0.18 1.36,0.54 1.78,1.1 0.42,0.55 0.63,1.24 0.63,2.07 0,1.13 -0.41,2.08 -1.23,2.87 -0.82,0.78 -1.86,1.17 -3.11,1.17 -1.13,0 -2.07,-0.34 -2.82,-1.01 -0.75,-0.68 -1.17,-1.55 -1.28,-2.62 z"
         id="path3646"
         style="font-size:18px;fill:#000000;font-family:Arial" />
      <path
         d="m 255.91,170.14 2.27,0.57 c -0.48,1.87 -1.33,3.29 -2.57,4.27 -1.24,0.98 -2.76,1.47 -4.54,1.47 -1.86,0 -3.36,-0.37 -4.52,-1.13 -1.16,-0.75 -2.04,-1.84 -2.65,-3.27 -0.61,-1.43 -0.91,-2.97 -0.91,-4.61 0,-1.79 0.34,-3.35 1.03,-4.68 0.68,-1.33 1.65,-2.34 2.91,-3.04 1.27,-0.69 2.66,-1.03 4.17,-1.03 1.72,0 3.17,0.43 4.34,1.31 1.17,0.87 1.99,2.11 2.45,3.69 l -2.24,0.53 c -0.4,-1.25 -0.98,-2.16 -1.74,-2.73 -0.75,-0.57 -1.71,-0.86 -2.86,-0.86 -1.32,0 -2.42,0.32 -3.31,0.95 -0.88,0.63 -1.51,1.48 -1.87,2.55 -0.35,1.07 -0.53,2.17 -0.53,3.3 0,1.46 0.21,2.74 0.63,3.83 0.43,1.09 1.09,1.9 1.99,2.44 0.9,0.54 1.87,0.81 2.92,0.81 1.27,0 2.35,-0.37 3.23,-1.1 0.89,-0.74 1.48,-1.83 1.8,-3.27 z"
         id="path3648"
         style="font-size:24px;fill:#000000;font-family:Arial" />
    </g>
  </g>
  <g
     transform="translate(8.0608,7.2429)"
     id="g3464">
    <path
       d="m 276.43,180.73 0,0 -0.42,0.74 -0.43,0.73 -15.81,-9.13 0.42,-0.74 0.43,-0.74 z"
       id="path3466"
       style="fill:#000000;fill-rule:evenodd;stroke:#000000;stroke-width:0;stroke-linejoin:miter" />
  </g>
  <g
     transform="translate(8.0608,7.2429)"
     id="g3468">
    <g
       id="text3470"
       style="text-anchor:start">
      <path
         d="m 409.01,139.98 2.27,0.57 c -0.47,1.87 -1.33,3.29 -2.57,4.27 -1.24,0.98 -2.75,1.47 -4.54,1.47 -1.85,0 -3.36,-0.37 -4.52,-1.13 -1.16,-0.75 -2.04,-1.84 -2.65,-3.27 -0.6,-1.43 -0.9,-2.97 -0.9,-4.61 0,-1.79 0.34,-3.35 1.02,-4.68 0.68,-1.33 1.66,-2.34 2.92,-3.04 1.26,-0.69 2.65,-1.03 4.16,-1.03 1.72,0 3.17,0.43 4.34,1.31 1.17,0.87 1.99,2.11 2.45,3.69 l -2.24,0.53 c -0.4,-1.25 -0.98,-2.16 -1.73,-2.73 -0.76,-0.57 -1.71,-0.86 -2.86,-0.86 -1.32,0 -2.43,0.32 -3.31,0.95 -0.89,0.63 -1.51,1.48 -1.87,2.55 -0.36,1.07 -0.54,2.17 -0.54,3.3 0,1.46 0.21,2.74 0.64,3.83 0.42,1.09 1.09,1.9 1.98,2.44 0.9,0.54 1.88,0.81 2.92,0.81 1.28,0 2.35,-0.37 3.24,-1.1 0.88,-0.74 1.48,-1.83 1.79,-3.27 z"
         id="path3637"
         style="font-size:24px;fill:#000000;font-family:Arial" />
      <path
         d="m 414.17,146 0,-17.18 2.27,0 0,7.05 8.93,0 0,-7.05 2.27,0 0,17.18 -2.27,0 0,-8.1 -8.93,0 0,8.1 z"
         id="path3639"
         style="font-size:24px;fill:#000000;font-family:Arial" />
      <path
         d="m 430.34,148.03 1.59,-0.21 c 0.18,0.89 0.49,1.54 0.92,1.94 0.44,0.39 0.97,0.59 1.6,0.59 0.74,0 1.37,-0.26 1.88,-0.77 0.52,-0.52 0.77,-1.16 0.77,-1.92 0,-0.73 -0.24,-1.33 -0.71,-1.8 -0.47,-0.47 -1.08,-0.71 -1.81,-0.71 -0.3,0 -0.67,0.1 -1.12,0.18 l 0.18,-1.39 c 0.1,0 0.19,0 0.25,0 0.68,0 1.28,-0.18 1.82,-0.53 0.54,-0.35 0.81,-0.89 0.81,-1.62 0,-0.58 -0.19,-1.06 -0.59,-1.45 -0.39,-0.38 -0.9,-0.57 -1.52,-0.57 -0.61,0 -1.13,0.2 -1.54,0.58 -0.41,0.39 -0.67,0.97 -0.79,1.74 l -1.58,-0.28 c 0.19,-1.06 0.63,-1.88 1.32,-2.46 0.69,-0.59 1.54,-0.88 2.56,-0.88 0.7,0 1.35,0.15 1.94,0.46 0.59,0.3 1.04,0.71 1.36,1.23 0.31,0.52 0.47,1.08 0.47,1.66 0,0.56 -0.15,1.06 -0.45,1.52 -0.3,0.46 -0.74,0.82 -1.33,1.09 0.76,0.18 1.36,0.54 1.78,1.1 0.42,0.55 0.63,1.24 0.63,2.07 0,1.13 -0.41,2.08 -1.23,2.87 -0.82,0.78 -1.86,1.17 -3.11,1.17 -1.13,0 -2.07,-0.34 -2.82,-1.01 -0.74,-0.68 -1.17,-1.55 -1.28,-2.62 z"
         id="path3641"
         style="font-size:18px;fill:#000000;font-family:Arial" />
    </g>
  </g>
  <g
     transform="translate(8.0608,7.2429)"
     id="g3476">
    <path
       d="m 395.33,164.68 0,0 -0.81,-0.27 -0.81,-0.26 5.27,-16.23 0.81,0.27 0.81,0.26 z"
       id="path3478"
       style="fill:#000000;fill-rule:evenodd;stroke:#000000;stroke-width:0;stroke-linejoin:miter" />
  </g>
</svg>
