<?xml version="1.0" encoding="UTF-8"?>
<svg width="129pt" xmlns:xlink="http://www.w3.org/1999/xlink" xmlns="http://www.w3.org/2000/svg" height="108pt" viewBox="0 0 129 108" >
 <g transform="translate(22.8047, 90.835)" style="fill:#161413; fill-rule:evenodd; stroke:none; stroke-width:0; stroke-linecap:butt; stroke-linejoin:miter; stroke-dasharray:none;" >
  <path d="M11.6621 0 C11.6621 0 9.8623 0 9.8623 0 C9.8623 0 9.8623 12.194 9.8623 12.194 C9.8623 12.194 2.0664 0 2.0664 0 C2.0664 0 0 0 0 0 C0 0 0 14.915 0 14.915 C0 14.915 1.8008 14.915 1.8008 14.915 C1.8008 14.915 1.8008 2.8232 1.8008 2.8232 C1.8008 2.8232 9.5146 14.915 9.5146 14.915 C9.5146 14.915 11.6621 14.915 11.6621 14.915 C11.6621 14.915 11.6621 0 11.6621 0 Z" />
 </g>
 <g transform="translate(2.40039, 53.25)" style="fill:#161413; fill-rule:nonzero; stroke:none; stroke-width:1.25; stroke-linecap:butt; stroke-linejoin:miter; stroke-dasharray:none;" >
  <path d="M1.25 29.4502 C1.25 29.4502 0 30.1504 0 30.1504 C0 30.1504 0 0 0 0 C0 0 1.25 0.7002 1.25 0.7002 C1.25 0.7002 1.25 29.4502 1.25 29.4502 Z" />
 </g>
 <g transform="translate(7.7002, 56.6504)" style="fill:#161413; fill-rule:nonzero; stroke:none; stroke-width:1.25; stroke-linecap:butt; stroke-linejoin:miter; stroke-dasharray:none;" >
  <path d="M1.25 23.3496 C1.25 23.3496 0 23.3496 0 23.3496 C0 23.3496 0 0 0 0 C0 0 1.25 0 1.25 0 C1.25 0 1.25 23.3496 1.25 23.3496 Z" />
 </g>
 <g transform="translate(2.40039, 82.7002)" style="fill:#161413; fill-rule:nonzero; stroke:none; stroke-width:1.25; stroke-linecap:butt; stroke-linejoin:miter; stroke-dasharray:none;" >
  <path d="M16.4492 8.7998 C16.4492 8.7998 15.7998 9.8496 15.7998 9.8496 C15.7998 9.8496 0 0.7002 0 0.7002 C0 0.7002 1.25 0 1.25 0 C1.25 0 16.4492 8.7998 16.4492 8.7998 Z" />
 </g>
 <g transform="translate(38.25, 82.7002)" style="fill:#161413; fill-rule:nonzero; stroke:none; stroke-width:1.25; stroke-linecap:butt; stroke-linejoin:miter; stroke-dasharray:none;" >
  <path d="M15.2002 0 C15.2002 0 16.4004 0.7002 16.4004 0.7002 C16.4004 0.7002 0.5996 9.8496 0.5996 9.8496 C0.5996 9.8496 0 8.7998 0 8.7998 C0 8.7998 15.2002 0 15.2002 0 Z" />
 </g>
 <g transform="translate(35.5996, 79.4502)" style="fill:#161413; fill-rule:nonzero; stroke:none; stroke-width:1.25; stroke-linecap:butt; stroke-linejoin:miter; stroke-dasharray:none;" >
  <path d="M12.8506 0 C12.8506 0 13.4502 1.0996 13.4502 1.0996 C13.4502 1.0996 0.6006 8.5 0.6006 8.5 C0.6006 8.5 0 7.4502 0 7.4502 C0 7.4502 12.8506 0 12.8506 0 Z" />
 </g>
 <g transform="translate(53.4502, 53.5996)" style="fill:#161413; fill-rule:nonzero; stroke:none; stroke-width:1.25; stroke-linecap:butt; stroke-linejoin:miter; stroke-dasharray:none;" >
  <path d="M0 0.3506 C0 0.3506 0.5996 0 0.5996 0 C0.5996 0 1.2002 0.3506 1.2002 0.3506 C1.2002 0.3506 1.2002 29.8008 1.2002 29.8008 C1.2002 29.8008 0 29.1006 0 29.1006 C0 29.1006 0 0.3506 0 0.3506 Z" />
 </g>
 <g transform="translate(28.5498, 38.1504)" style="fill:#161413; fill-rule:nonzero; stroke:none; stroke-width:1.25; stroke-linecap:butt; stroke-linejoin:miter; stroke-dasharray:none;" >
  <path d="M0 1.4492 C0 1.4492 0 0 0 0 C0 0 25.5 14.75 25.5 14.75 C25.5 14.75 25.5 15.4492 25.5 15.4492 C25.5 15.4492 24.9004 15.7998 24.9004 15.7998 C24.9004 15.7998 0 1.4492 0 1.4492 Z" />
 </g>
 <g transform="translate(28.25, 44.4502)" style="fill:#161413; fill-rule:nonzero; stroke:none; stroke-width:1.25; stroke-linecap:butt; stroke-linejoin:miter; stroke-dasharray:none;" >
  <path d="M0 1.0498 C0 1.0498 0.5996 0 0.5996 0 C0.5996 0 20.7998 11.7002 20.7998 11.7002 C20.7998 11.7002 20.2002 12.75 20.2002 12.75 C20.2002 12.75 0 1.0498 0 1.0498 Z" />
 </g>
 <g transform="translate(2.40039, 38.1504)" style="fill:#161413; fill-rule:nonzero; stroke:none; stroke-width:1.25; stroke-linecap:butt; stroke-linejoin:miter; stroke-dasharray:none;" >
  <path d="M1.25 15.7998 C1.25 15.7998 0 15.0996 0 15.0996 C0 15.0996 26.1494 0 26.1494 0 C26.1494 0 26.1494 1.4492 26.1494 1.4492 C26.1494 1.4492 1.25 15.7998 1.25 15.7998 Z" />
 </g>
 <g transform="translate(54.0498, 38.8496)" style="fill:#161413; fill-rule:nonzero; stroke:none; stroke-width:1.25; stroke-linecap:butt; stroke-linejoin:miter; stroke-dasharray:none;" >
  <path d="M24.2002 0.1006 C24.2002 0.1006 25.5 0 25.5 0 C25.5 0 25.5498 0.7002 25.5498 0.7002 C25.5498 0.7002 0.6006 15.1006 0.6006 15.1006 C0.6006 15.1006 0 14.75 0 14.75 C0 14.75 0 14.0508 0 14.0508 C0 14.0508 24.2002 0.1006 24.2002 0.1006 Z" />
 </g>
 <g transform="translate(100.805, 44.085)" style="fill:#161413; fill-rule:evenodd; stroke:none; stroke-width:1.25; stroke-linecap:butt; stroke-linejoin:miter; stroke-dasharray:none;" >
  <path d="M11.662 0 C11.662 0 9.862 0 9.862 0 C9.862 0 9.862 12.1943 9.862 12.1943 C9.862 12.1943 2.066 0 2.066 0 C2.066 0 0 0 0 0 C0 0 0 14.915 0 14.915 C0 14.915 1.8 14.915 1.8 14.915 C1.8 14.915 1.8 2.8232 1.8 2.8232 C1.8 2.8232 9.514 14.915 9.514 14.915 C9.514 14.915 11.662 14.915 11.662 14.915 C11.662 14.915 11.662 0 11.662 0 Z" />
 </g>
 <g transform="translate(79.5498, 38.5)" style="fill:#161413; fill-rule:nonzero; stroke:none; stroke-width:1.25; stroke-linecap:butt; stroke-linejoin:miter; stroke-dasharray:none;" >
  <path d="M16.9004 7.2002 C16.9004 7.2002 16.4004 8.3496 16.4004 8.3496 C16.4004 8.3496 0.0498 1.0498 0.0498 1.0498 C0.0498 1.0498 0 0.3496 0 0.3496 C0 0.3496 0.6504 0 0.6504 0 C0.6504 0 16.9004 7.2002 16.9004 7.2002 Z" />
 </g>
 <g transform="translate(114.1, 28.9004)" style="fill:#161413; fill-rule:nonzero; stroke:none; stroke-width:1.25; stroke-linecap:butt; stroke-linejoin:miter; stroke-dasharray:none;" >
  <path d="M11.35 0 C11.35 0 12.85 0.1494 12.85 0.1494 C12.85 0.1494 0.9 13.3994 0.9 13.3994 C0.9 13.3994 0 12.5498 0 12.5498 C0 12.5498 11.35 0 11.35 0 Z" />
 </g>
 <g transform="translate(111.15, 2.75)" style="fill:#161413; fill-rule:nonzero; stroke:none; stroke-width:1.25; stroke-linecap:butt; stroke-linejoin:miter; stroke-dasharray:none;" >
  <path d="M0 1.40039 C0 1.40039 0.6 0 0.6 0 C0.6 0 15.8 26.2998 15.8 26.2998 C15.8 26.2998 14.3 26.1504 14.3 26.1504 C14.3 26.1504 0 1.40039 0 1.40039 Z" />
 </g>
 <g transform="translate(82.0996, 2.75)" style="fill:#161413; fill-rule:nonzero; stroke:none; stroke-width:1.25; stroke-linecap:butt; stroke-linejoin:miter; stroke-dasharray:none;" >
  <path d="M1.1006 7.3496 C1.1006 7.3496 0 6.2998 0 6.2998 C0 6.2998 29.6504 0 29.6504 0 C29.6504 0 29.0504 1.40039 29.0504 1.40039 C29.0504 1.40039 1.1006 7.3496 1.1006 7.3496 Z" />
 </g>
 <g transform="translate(79.0498, 9.0498)" style="fill:#161413; fill-rule:nonzero; stroke:none; stroke-width:1.25; stroke-linecap:butt; stroke-linejoin:miter; stroke-dasharray:none;" >
  <path d="M1.1504 29.4502 C1.1504 29.4502 0.5 29.7998 0.5 29.7998 C0.5 29.7998 0 28.6006 0 28.6006 C0 28.6006 3.0498 0 3.0498 0 C3.0498 0 4.1504 1.0498 4.1504 1.0498 C4.1504 1.0498 1.1504 29.4502 1.1504 29.4502 Z" />
 </g>
 <g transform="translate(108.45, 62.7998)" style="fill:#161413; fill-rule:nonzero; stroke:none; stroke-width:1.25; stroke-linecap:butt; stroke-linejoin:miter; stroke-dasharray:none;" >
  <path d="M4.75 16.75 C4.75 16.75 3.55 17 3.55 17 C3.55 17 0 0.25 0 0.25 C0 0.25 1.2 0 1.2 0 C1.2 0 4.75 16.75 4.75 16.75 Z" />
 </g>
 <g transform="translate(49.1982, 16.085)" style="fill:#161413; fill-rule:evenodd; stroke:none; stroke-width:1.25; stroke-linecap:butt; stroke-linejoin:miter; stroke-dasharray:none;" >
  <path d="M9.5752 8.122 C9.5752 8.122 9.5752 14.915 9.5752 14.915 C9.5752 14.915 11.4776 14.915 11.4776 14.915 C11.4776 14.915 11.4776 0 11.4776 0 C11.4776 0 9.5752 0 9.5752 0 C9.5752 0 9.5752 6.4443 9.5752 6.4443 C9.5752 6.4443 1.9024 6.4443 1.9024 6.4443 C1.9024 6.4443 1.9024 0 1.9024 0 C1.9024 0 0 0 0 0 C0 0 0 14.915 0 14.915 C0 14.915 1.9229 14.915 1.9229 14.915 C1.9229 14.915 1.9229 8.122 1.9229 8.122 C1.9229 8.122 9.5752 8.122 9.5752 8.122 Z" />
 </g>
 <g transform="translate(63.6504, 27.0498)" style="fill:#161413; fill-rule:nonzero; stroke:none; stroke-width:1.25; stroke-linecap:butt; stroke-linejoin:miter; stroke-dasharray:none;" >
  <path d="M0 5.1504 C0 5.1504 3.3496 0 3.3496 0 C3.3496 0 15.3994 10.6006 15.3994 10.6006 C15.3994 10.6006 15.8994 11.7998 15.8994 11.7998 C15.8994 11.7998 14.5996 11.9004 14.5996 11.9004 C14.5996 11.9004 0 5.1504 0 5.1504 Z" />
 </g>
</svg>
