<?xml version="1.0" encoding="UTF-8" standalone="no"?>
<!-- Created with Inkscape (http://www.inkscape.org/) -->
<svg xmlns:rdf="http://www.w3.org/1999/02/22-rdf-syntax-ns#" xmlns="http://www.w3.org/2000/svg" xml:space="preserve" version="1.1" xmlns:cc="http://creativecommons.org/ns#" xmlns:dc="http://purl.org/dc/elements/1.1/" viewBox="0 0 327.8 246.1"><metadata><rdf:RDF><cc:Work rdf:about=""><dc:format>image/svg+xml</dc:format><dc:type rdf:resource="http://purl.org/dc/dcmitype/StillImage"/><dc:title/></cc:Work></rdf:RDF></metadata><g transform="matrix(1.25,0,0,-1.25,-5.2,250)"><g style="" fill-rule="nonzero" transform="scale(1,-1)" fill="#000"><path d="m73.78-115,0-17.2,2.33,0,9.02,13.5,0-13.5,2.18,0,0,17.2-2.33,0-9.02-13.5,0,13.5z"/><path d="m108.2-55.45,0-17.18,2.3,0,9,13.49,0-13.49,2.2,0,0,17.18-2.3,0-9-13.5,0,13.5z"/></g><path d="m81.51,85.28-1.7-1,0,28.52,1.7,0" fill-rule="nonzero" fill="#000"/><path d="m105.1,71.68-0.9-1.5-24.39,14.1,1.7,1" fill-rule="nonzero" fill="#000"/><path d="m148.5,85.28,0.9-0.5,0.1-0.9-23.8-13.75-0.9,1.45" fill-rule="nonzero" fill="#000"/><path d="m148.5,124,0.9,0.5,0.8-0.7,0-38.37-0.8-0.65-0.9,0.5" fill-rule="nonzero" fill="#000"/><path d="m154.5,89.13,1.7,0,0,30.97-1.7,0,0-30.97z" fill-rule="nonzero" fill="#000"/><path d="m115,143.3,0,2,34.5-19.9-0.1-0.9-0.9-0.5" fill-rule="nonzero" fill="#000"/><path d="m91.31,129.6-0.86,1.5,24.55,14.2,0-2" fill-rule="nonzero" fill="#000"/><g style="" fill-rule="nonzero" transform="scale(1,-1)" fill="#000"><path d="m180.3-63.08,0-17.18,2.4,0,9,13.49,0-13.49,2.2,0,0,17.18-2.4,0-9-13.5,0,13.5z"/><path d="m180.3-127.3,0-17.2,2.4,0,9,13.5,0-13.5,2.2,0,0,17.2-2.4,0-9-13.5,0,13.5z"/></g><path d="m177.4,76.58-0.5-1.6-27.4,8.9-0.1,0.9,0.8,0.65" fill-rule="nonzero" fill="#000"/><path d="m209.4,104.6,2.1,0-16.3-22.47-1.4,1" fill-rule="nonzero" fill="#000"/><path d="m194.6,125,1.4,1,15.5-21.4-2.1,0" fill-rule="nonzero" fill="#000"/><path d="m150.2,123.8-0.8,0.7,0.1,0.9,27.4,8.9,0.5-1.6" fill-rule="nonzero" fill="#000"/><g style="" transform="scale(1,-1)"><path fill-rule="nonzero" fill="#000" d="m38.12-63.85c0-2.85,0.77-5.08,2.3-6.69,1.53-1.62,3.5-2.42,5.93-2.42,1.58,0,3.01,0.37,4.29,1.13,1.27,0.76,2.24,1.82,2.91,3.17,0.67,1.36,1,2.89,1,4.61,0,1.75-0.35,3.3-1.05,4.68-0.71,1.37-1.7,2.42-2.99,3.12-1.29,0.71-2.68,1.06-4.18,1.06-1.61,0-3.06-0.39-4.33-1.17s-2.24-1.85-2.9-3.2c-0.65-1.35-0.98-2.78-0.98-4.29zm2.34,0c0,2.07,0.56,3.7,1.67,4.89,1.12,1.19,2.51,1.79,4.19,1.79,1.71,0,3.12-0.6,4.23-1.81,1.1-1.2,1.66-2.91,1.66-5.12,0-1.4-0.24-2.62-0.71-3.66-0.48-1.04-1.17-1.85-2.08-2.43-0.91-0.57-1.93-0.86-3.06-0.86-1.61,0-3,0.56-4.16,1.66-1.16,1.11-1.74,2.95-1.74,5.54z"/></g><path d="m57.26,66.88-0.85,1.45,26.79,15.45,0.86-1.45" fill-rule="nonzero" fill="#000"/><path d="m54.26,72.03-0.85,1.45,26.79,15.5,0.86-1.5" fill-rule="nonzero" fill="#000"/><g style="" transform="scale(1,-1)"><path fill-rule="nonzero" fill="#000" d="m106.9-182.9c0-2.8,0.7-5.1,2.3-6.7,1.5-1.6,3.5-2.4,5.9-2.4,1.6,0,3,0.4,4.3,1.2,1.2,0.7,2.2,1.8,2.9,3.1,0.7,1.4,1,2.9,1,4.6,0,1.8-0.4,3.3-1.1,4.7s-1.7,2.4-3,3.1c-1.2,0.7-2.6,1.1-4.1,1.1-1.6,0-3.1-0.4-4.4-1.2-1.2-0.8-2.2-1.8-2.9-3.2-0.6-1.3-0.9-2.8-0.9-4.3zm2.3,0.1c0,2,0.6,3.7,1.7,4.9s2.5,1.7,4.2,1.7,3.1-0.6,4.2-1.8,1.6-2.9,1.6-5.1c0-1.4-0.2-2.6-0.7-3.6-0.4-1.1-1.1-1.9-2-2.5-0.9-0.5-2-0.8-3.1-0.8-1.6,0-3,0.5-4.2,1.6-1.1,1.1-1.7,3-1.7,5.6z"/></g><path d="m111.2,142.6,1.7,0,0,29.4-1.7,0,0-29.4z" fill-rule="nonzero" fill="#000"/><path d="m117.2,142.6,1.7,0,0,29.4-1.7,0,0-29.4z" fill-rule="nonzero" fill="#000"/><g style="" transform="scale(1,-1)"><path fill-rule="nonzero" fill="#000" d="m12.16-134.8,0-17.2,2.28,0,0,7.1,8.92,0,0-7.1,2.28,0,0,17.2-2.28,0,0-8.1-8.92,0,0,8.1z"/></g><g style="" transform="scale(1,-1)"><path fill-rule="nonzero" fill="#000" d="m28.34-133.7,1.58-0.2c0.18,0.9,0.49,1.5,0.93,1.9,0.43,0.4,0.96,0.6,1.59,0.6,0.74,0,1.37-0.2,1.89-0.8,0.51-0.5,0.76-1.1,0.76-1.9,0-0.7-0.23-1.3-0.71-1.8-0.47-0.4-1.08-0.7-1.81-0.7-0.3,0-0.67,0.1-1.11,0.2l0.17-1.4h0.26c0.67,0,1.28-0.1,1.82-0.5,0.54-0.3,0.8-0.9,0.8-1.6,0-0.6-0.19-1.1-0.58-1.5-0.4-0.3-0.9-0.5-1.52-0.5s-1.13,0.2-1.54,0.5c-0.41,0.4-0.68,1-0.79,1.8l-1.59-0.3c0.2-1.1,0.64-1.9,1.32-2.5,0.69-0.5,1.54-0.8,2.56-0.8,0.7,0,1.35,0.1,1.94,0.4s1.05,0.7,1.36,1.2c0.31,0.6,0.47,1.1,0.47,1.7s-0.15,1.1-0.45,1.5c-0.3,0.5-0.74,0.9-1.32,1.1,0.76,0.2,1.35,0.6,1.77,1.1,0.42,0.6,0.63,1.3,0.63,2.1,0,1.1-0.41,2.1-1.23,2.9-0.82,0.7-1.85,1.1-3.11,1.1-1.13,0-2.07-0.3-2.82-1-0.74-0.7-1.17-1.5-1.27-2.6z"/></g><g style="" transform="scale(1,-1)"><path fill-rule="nonzero" fill="#000" d="m51.69-140.8,2.27,0.6c-0.47,1.8-1.33,3.2-2.57,4.2s-2.75,1.5-4.54,1.5c-1.85,0-3.36-0.4-4.52-1.1-1.16-0.8-2.04-1.9-2.65-3.3-0.6-1.4-0.9-3-0.9-4.6,0-1.8,0.34-3.4,1.02-4.7s1.66-2.3,2.92-3,2.65-1.1,4.16-1.1c1.72,0,3.17,0.5,4.34,1.3,1.17,0.9,1.99,2.1,2.45,3.7l-2.24,0.6c-0.4-1.3-0.98-2.2-1.73-2.8-0.76-0.5-1.71-0.8-2.86-0.8-1.32,0-2.43,0.3-3.31,0.9-0.89,0.7-1.51,1.5-1.87,2.6-0.36,1-0.54,2.1-0.54,3.3,0,1.4,0.21,2.7,0.64,3.8,0.42,1.1,1.09,1.9,1.98,2.4,0.9,0.6,1.88,0.8,2.92,0.8,1.28,0,2.35-0.3,3.24-1.1,0.88-0.7,1.48-1.8,1.79-3.2z"/></g><path d="m55.66,137.9,0.85,1.5,14.19-8.2-0.85-1.5" fill-rule="nonzero" fill="#000"/><g style="" transform="scale(1,-1)"><path fill-rule="nonzero" fill="#000" d="m242-103.5c0-2.9,0.7-5.1,2.3-6.7,1.5-1.7,3.5-2.5,5.9-2.5,1.6,0,3,0.4,4.3,1.2,1.2,0.7,2.2,1.8,2.9,3.1,0.7,1.4,1,2.9,1,4.7,0,1.7-0.4,3.3-1.1,4.63-0.7,1.37-1.7,2.42-3,3.12-1.2,0.71-2.6,1.06-4.1,1.06-1.6,0-3.1-0.39-4.4-1.17-1.2-0.78-2.2-1.85-2.9-3.2-0.6-1.34-0.9-2.74-0.9-4.24zm2.3,0c0,2.1,0.6,3.69,1.7,4.88s2.5,1.79,4.2,1.79,3.1-0.6,4.2-1.81c1.1-1.2,1.6-2.86,1.6-5.16,0-1.4-0.2-2.6-0.7-3.6-0.4-1.1-1.1-1.9-2-2.4-0.9-0.6-2-0.9-3.1-0.9-1.6,0-3,0.5-4.2,1.7-1.1,1.1-1.7,2.9-1.7,5.5z"/></g><path d="m208.3,106.8,31.4,0,0,1.7-31.4,0,0-1.7z" fill-rule="nonzero" fill="#000"/><path d="m208.3,100.8,31.4,0,0,1.7-31.4,0,0-1.7z" fill-rule="nonzero" fill="#000"/><g style="" fill-rule="nonzero" transform="scale(1,-1)" fill="#000"><path d="m120.5-21.85,2.3,0.57c-0.5,1.87-1.4,3.29-2.6,4.27s-2.7,1.47-4.5,1.47c-1.9,0-3.4-0.37-4.5-1.13-1.2-0.75-2.1-1.84-2.7-3.27s-0.9-2.97-0.9-4.61c0-1.79,0.3-3.35,1-4.68s1.7-2.34,2.9-3.04c1.3-0.69,2.7-1.03,4.2-1.03,1.7,0,3.2,0.43,4.3,1.31,1.2,0.87,2,2.11,2.5,3.69l-2.2,0.53c-0.4-1.25-1-2.16-1.8-2.73-0.7-0.57-1.7-0.86-2.8-0.86-1.4,0-2.5,0.32-3.4,0.95-0.8,0.63-1.5,1.48-1.8,2.55-0.4,1.07-0.6,2.17-0.6,3.3,0,1.46,0.3,2.74,0.7,3.83s1.1,1.9,2,2.44,1.8,0.81,2.9,0.81c1.3,0,2.3-0.37,3.2-1.1,0.9-0.74,1.5-1.83,1.8-3.27z"/><path d="m125.6-15.83,0-17.18,2.3,0,0,7.06,9,0,0-7.06,2.2,0,0,17.18-2.2,0,0-8.1-9,0,0,8.1z"/></g><g style="" transform="scale(1,-1)"><path fill-rule="nonzero" fill="#000" d="m141.8-14.73,1.5-0.21c0.2,0.89,0.5,1.54,1,1.94,0.4,0.39,0.9,0.59,1.6,0.59s1.3-0.26,1.8-0.77c0.6-0.52,0.8-1.16,0.8-1.92,0-0.73-0.2-1.33-0.7-1.8s-1.1-0.71-1.8-0.71c-0.3,0-0.7,0.1-1.1,0.18l0.2-1.39h0.2c0.7,0,1.3-0.18,1.8-0.53,0.6-0.35,0.8-0.89,0.8-1.62,0-0.58-0.2-1.06-0.6-1.45-0.3-0.38-0.9-0.57-1.5-0.57s-1.1,0.2-1.5,0.58c-0.4,0.39-0.7,0.97-0.8,1.74l-1.6-0.28c0.2-1.06,0.6-1.88,1.3-2.46,0.7-0.59,1.6-0.88,2.6-0.88,0.7,0,1.3,0.15,1.9,0.46,0.6,0.3,1.1,0.71,1.4,1.23s0.5,1.08,0.5,1.66c0,0.56-0.2,1.06-0.5,1.52s-0.7,0.82-1.3,1.09c0.7,0.18,1.3,0.54,1.8,1.1,0.4,0.55,0.6,1.24,0.6,2.07,0,1.13-0.4,2.08-1.2,2.87-0.9,0.78-1.9,1.17-3.1,1.17s-2.1-0.34-2.9-1.01c-0.7-0.68-1.1-1.55-1.2-2.62z"/></g><path d="m114.2,35.58,1.7,0,0,17.65-1.7,0,0-17.65z" fill-rule="nonzero" fill="#000"/><g style="" fill-rule="nonzero" transform="scale(1,-1)" fill="#000"><path d="m204.8-171,2.3,0.6c-0.5,1.8-1.4,3.2-2.6,4.2s-2.7,1.5-4.5,1.5c-1.9,0-3.4-0.4-4.5-1.1-1.2-0.8-2.1-1.9-2.7-3.3s-0.9-3-0.9-4.6c0-1.8,0.3-3.4,1-4.7s1.7-2.3,2.9-3c1.3-0.7,2.7-1.1,4.2-1.1,1.7,0,3.2,0.5,4.3,1.3,1.2,0.9,2,2.1,2.5,3.7l-2.2,0.6c-0.4-1.3-1-2.2-1.8-2.8-0.7-0.5-1.7-0.8-2.8-0.8-1.4,0-2.5,0.3-3.4,0.9-0.8,0.7-1.5,1.5-1.8,2.6-0.4,1-0.6,2.1-0.6,3.3,0,1.4,0.3,2.7,0.7,3.8s1.1,1.9,2,2.4c0.9,0.6,1.8,0.8,2.9,0.8,1.3,0,2.3-0.3,3.2-1.1,0.9-0.7,1.5-1.8,1.8-3.2z"/><path d="m209.9-165,0-17.2,2.3,0,0,7.1,9,0,0-7.1,2.2,0,0,17.2-2.2,0,0-8.1-9,0,0,8.1z"/></g><g style="" transform="scale(1,-1)"><path fill-rule="nonzero" fill="#000" d="m226.2-163.9,1.5-0.2c0.2,0.9,0.5,1.5,1,1.9,0.4,0.4,0.9,0.6,1.6,0.6s1.3-0.2,1.8-0.8c0.6-0.5,0.8-1.1,0.8-1.9,0-0.7-0.2-1.3-0.7-1.8-0.5-0.4-1.1-0.7-1.8-0.7-0.3,0-0.7,0.1-1.1,0.2l0.2-1.4h0.2c0.7,0,1.3-0.1,1.8-0.5,0.6-0.3,0.8-0.9,0.8-1.6,0-0.6-0.2-1.1-0.6-1.5-0.3-0.3-0.9-0.5-1.5-0.5s-1.1,0.2-1.5,0.5c-0.4,0.4-0.7,1-0.8,1.8l-1.6-0.3c0.2-1.1,0.6-1.9,1.3-2.5,0.7-0.5,1.6-0.8,2.6-0.8,0.7,0,1.3,0.1,1.9,0.4s1.1,0.7,1.4,1.2c0.3,0.6,0.5,1.1,0.5,1.7s-0.2,1.1-0.5,1.5c-0.3,0.5-0.7,0.9-1.3,1.1,0.7,0.2,1.3,0.6,1.8,1.1,0.4,0.6,0.6,1.3,0.6,2.1,0,1.1-0.4,2.1-1.2,2.9-0.9,0.7-1.9,1.1-3.1,1.1s-2.1-0.3-2.9-1c-0.7-0.7-1.1-1.5-1.2-2.6z"/></g><path d="m194.9,163.4,1.6-0.5-5-15.5-1.6,0.5" fill-rule="nonzero" fill="#000"/><g style="" fill-rule="nonzero" transform="scale(1,-1)" fill="#000"><path d="m204.8-31.35,2.3,0.57c-0.5,1.87-1.4,3.29-2.6,4.27s-2.7,1.47-4.5,1.47c-1.9,0-3.4-0.37-4.5-1.13-1.2-0.75-2.1-1.84-2.7-3.27s-0.9-2.97-0.9-4.61c0-1.79,0.3-3.35,1-4.68s1.7-2.34,2.9-3.04c1.3-0.69,2.7-1.03,4.2-1.03,1.7,0,3.2,0.43,4.3,1.31,1.2,0.87,2,2.11,2.5,3.69l-2.2,0.53c-0.4-1.25-1-2.16-1.8-2.73-0.7-0.57-1.7-0.86-2.8-0.86-1.4,0-2.5,0.32-3.4,0.95-0.8,0.63-1.5,1.48-1.8,2.55-0.4,1.07-0.6,2.17-0.6,3.3,0,1.46,0.3,2.74,0.7,3.83s1.1,1.9,2,2.44,1.8,0.81,2.9,0.81c1.3,0,2.3-0.37,3.2-1.1,0.9-0.74,1.5-1.83,1.8-3.27z"/><path d="m209.9-25.33,0-17.18,2.3,0,0,7.06,9,0,0-7.06,2.2,0,0,17.18-2.2,0,0-8.1-9,0,0,8.1z"/></g><g style="" transform="scale(1,-1)"><path fill-rule="nonzero" fill="#000" d="m226.2-24.23,1.5-0.21c0.2,0.89,0.5,1.54,1,1.94,0.4,0.39,0.9,0.59,1.6,0.59s1.3-0.26,1.8-0.77c0.6-0.52,0.8-1.16,0.8-1.92,0-0.73-0.2-1.33-0.7-1.8s-1.1-0.71-1.8-0.71c-0.3,0-0.7,0.1-1.1,0.18l0.2-1.39h0.2c0.7,0,1.3-0.18,1.8-0.53,0.6-0.35,0.8-0.89,0.8-1.62,0-0.58-0.2-1.06-0.6-1.45-0.3-0.38-0.9-0.57-1.5-0.57s-1.1,0.2-1.5,0.58c-0.4,0.39-0.7,0.97-0.8,1.74l-1.6-0.28c0.2-1.06,0.6-1.88,1.3-2.46,0.7-0.59,1.6-0.88,2.6-0.88,0.7,0,1.3,0.15,1.9,0.46,0.6,0.3,1.1,0.71,1.4,1.23s0.5,1.08,0.5,1.66c0,0.56-0.2,1.06-0.5,1.52s-0.7,0.82-1.3,1.09c0.7,0.18,1.3,0.54,1.8,1.1,0.4,0.55,0.6,1.24,0.6,2.07,0,1.13-0.4,2.08-1.2,2.87-0.9,0.78-1.9,1.17-3.1,1.17s-2.1-0.34-2.9-1.01c-0.7-0.68-1.1-1.55-1.2-2.62z"/></g><path d="m197.1,44.73-1.7-0.5-5,15.5,1.6,0.5" fill-rule="nonzero" fill="#000"/></g></svg>
